<svg width="20" height="20" viewBox="0 0 20 20" fill="none" xmlns="http://www.w3.org/2000/svg">
<rect width="20" height="20" fill="none"/>
<mask id="path-1-inside-1_993_21380" fill="white">
<path fill-rule="evenodd" clip-rule="evenodd" d="M17.4174 2.50293H2.44141V18.1029H11.6529L17.4123 12.1035L17.4123 18.1029H17.4174V2.50293Z"/>
</mask>
<path fill-rule="evenodd" clip-rule="evenodd" d="M17.4174 2.50293H2.44141V18.1029H11.6529L17.4123 12.1035L17.4123 18.1029H17.4174V2.50293Z" fill="#191B21"/>
<path d="M2.44141 2.50293V1.50293H1.44141V2.50293H2.44141ZM17.4174 2.50293H18.4174V1.50293H17.4174V2.50293ZM2.44141 18.1029H1.44141V19.1029H2.44141V18.1029ZM11.6529 18.1029V19.1029H12.0791L12.3742 18.7955L11.6529 18.1029ZM17.4123 12.1035L18.4123 12.1035L18.4123 9.61789L16.691 11.411L17.4123 12.1035ZM17.4123 18.1029L16.4123 18.1029L16.4123 19.1029H17.4123V18.1029ZM17.4174 18.1029V19.1029H18.4174V18.1029H17.4174ZM2.44141 3.50293H17.4174V1.50293H2.44141V3.50293ZM3.44141 18.1029V2.50293H1.44141V18.1029H3.44141ZM11.6529 17.1029H2.44141V19.1029H11.6529V17.1029ZM12.3742 18.7955L18.1337 12.7961L16.691 11.411L10.9315 17.4104L12.3742 18.7955ZM16.4123 12.1035L16.4123 18.1029L18.4123 18.1029L18.4123 12.1035L16.4123 12.1035ZM17.4174 17.1029H17.4123V19.1029H17.4174V17.1029ZM16.4174 2.50293V18.1029H18.4174V2.50293H16.4174Z" fill="#191B21" mask="url(#path-1-inside-1_993_21380)"/>
<rect x="1.5" y="1.5" width="3.32" height="3.5" fill="white" stroke="#191B21"/>
<rect x="1.5" y="15" width="3.32" height="3.5" fill="white" stroke="#191B21"/>
<rect x="15.1758" y="1.5" width="3.32" height="3.5" fill="white" stroke="#191B21"/>
<path d="M12.2047 8.31653C12.0222 7.35181 11.2039 6.79738 10.1678 6.79738C8.77259 6.79738 7.78358 7.80645 7.78947 9.625C7.78358 11.4713 8.77848 12.4526 10.1678 12.4526C11.1804 12.4526 11.9986 11.9204 12.2047 10.9778H13.7471C13.5116 12.5192 12.1635 13.75 10.1443 13.75C7.89543 13.75 6.2412 12.2142 6.24709 9.625C6.2412 7.03024 7.9131 5.5 10.1443 5.5C12.0281 5.5 13.4822 6.53125 13.7471 8.31653H12.2047Z" fill="white"/>
</svg>
