<svg width="24" height="24" viewBox="0 0 24 24" fill="none" xmlns="http://www.w3.org/2000/svg">
<path d="M11.9921 2C5.90721 2 1 5.86098 1 10.5483C1 13.5907 3.0414 16.2548 6.1035 17.7761L5.0671 21.5831C5.04755 21.6401 5.04455 21.7014 5.05842 21.76C5.07228 21.8187 5.10247 21.8723 5.14561 21.9151C5.20851 21.9696 5.28944 21.9998 5.37331 22C5.44284 21.9945 5.50881 21.9675 5.56174 21.9228L10.0214 18.9653C10.6797 19.0547 11.3433 19.101 12.0079 19.1042C18.0849 19.1042 23 15.2433 23 10.5483C23 5.85326 18.0692 2 11.9921 2Z" fill="#392020"/>
</svg>
