<svg width="20" height="20" viewBox="0 0 20 20" fill="none" xmlns="http://www.w3.org/2000/svg">
<rect width="20" height="20" fill="white"/>
<mask id="path-1-inside-1_993_21385" fill="white">
<path fill-rule="evenodd" clip-rule="evenodd" d="M19 1H1V19H19V1ZM18.9999 12.0769L12.0769 18.9999L18.9999 19V12.0769Z"/>
</mask>
<path fill-rule="evenodd" clip-rule="evenodd" d="M19 1H1V19H19V1ZM18.9999 12.0769L12.0769 18.9999L18.9999 19V12.0769Z" fill="#B2B4BA"/>
<path d="M1 1V0H0V1H1ZM19 1H20V0H19V1ZM1 19H0V20H1V19ZM19 19V20H20V19H19ZM12.0769 18.9999L11.3698 18.2928L9.66264 19.9999L12.0769 19.9999L12.0769 18.9999ZM18.9999 12.0769H19.9999V9.66272L18.2928 11.3698L18.9999 12.0769ZM18.9999 19L18.9999 20L19.9999 20V19H18.9999ZM1 2H19V0H1V2ZM2 19V1H0V19H2ZM19 18H1V20H19V18ZM18 1V19H20V1H18ZM12.784 19.7071L19.707 12.784L18.2928 11.3698L11.3698 18.2928L12.784 19.7071ZM18.9999 18L12.0769 17.9999L12.0769 19.9999L18.9999 20L18.9999 18ZM17.9999 12.0769V19H19.9999V12.0769H17.9999Z" fill="#B2B4BA" mask="url(#path-1-inside-1_993_21385)"/>
<path d="M14.5581 3.25V7.86538" stroke="white"/>
<path d="M16.8652 5.55801L12.2498 5.55801" stroke="white"/>
<path d="M14.7016 9.85696L18.2122 12.1891L14.9888 15.3841L14.9874 15.3855L11.8702 18.5H1.5V11.6878L5.11863 8.42632L10.0214 12.9393L10.3314 13.2247L10.6652 12.9675L14.7016 9.85696Z" fill="white" stroke="#B2B4BA"/>
</svg>
