<svg width="20" height="20" viewBox="0 0 20 20" fill="none" xmlns="http://www.w3.org/2000/svg">
<rect width="20" height="20" fill="none"/>
<mask id="path-1-inside-1_993_21384" fill="white">
<path fill-rule="evenodd" clip-rule="evenodd" d="M18.9996 4.97461H1V19.0002H18.9996L18.9996 19L12.0767 18.9999L18.9996 11.9872V4.97461Z"/>
</mask>
<path fill-rule="evenodd" clip-rule="evenodd" d="M18.9996 4.97461H1V19.0002H18.9996L18.9996 19L12.0767 18.9999L18.9996 11.9872V4.97461Z" fill="white"/>
<path d="M1 4.97461V4.29108H0.316473V4.97461H1ZM18.9996 4.97461H19.6831V4.29108H18.9996V4.97461ZM1 19.0002H0.316473V19.6838H1V19.0002ZM18.9996 19.0002V19.6838H19.6489L19.6822 19.0352L18.9996 19.0002ZM18.9996 19L19.6822 19.035L19.719 18.3165L18.9996 18.3164L18.9996 19ZM12.0767 18.9999L11.5902 18.5197L10.4414 19.6835L12.0767 19.6835L12.0767 18.9999ZM18.9996 11.9872L19.486 12.4674L19.6831 12.2677V11.9872H18.9996ZM1 5.65814H18.9996V4.29108H1V5.65814ZM1.68353 19.0002V4.97461H0.316473V19.0002H1.68353ZM18.9996 18.3167H1V19.6838H18.9996V18.3167ZM18.3169 18.965L18.3169 18.9652L19.6822 19.0352L19.6822 19.035L18.3169 18.965ZM18.9996 18.3164L12.0767 18.3164L12.0767 19.6835L18.9996 19.6835L18.9996 18.3164ZM12.5631 19.4801L19.486 12.4674L18.5131 11.507L11.5902 18.5197L12.5631 19.4801ZM18.316 4.97461V11.9872H19.6831V4.97461H18.316Z" fill="#191B21" mask="url(#path-1-inside-1_993_21384)"/>
<path d="M1 19.0001V4.75049H18.9996V12.1168L11.993 19.0001H1Z" fill="#191B21"/>
<path d="M5.27588 4.85935C5.27588 3.5729 6.22223 1 10.0076 1C13.793 1 14.7394 3.5729 14.7394 4.85935" stroke="#191B21"/>
<rect x="9" y="4" width="2" height="5" fill="white"/>
</svg>
