<svg width="202" height="35" viewBox="0 0 202 35" fill="none" xmlns="http://www.w3.org/2000/svg">
<path d="M20.0458 3.16509V7.66992H12.3V32.0965H7.74577V7.66992H0V3.16509H20.0458Z" fill="white"/>
<path d="M48.5665 32.0965H43.3705V25.0551H28.9297V32.0965H23.7338V17.7536C23.7338 15.6599 24.0935 13.7328 24.8129 11.9725C25.5324 10.2121 26.5316 8.69848 27.8106 7.43155C29.0896 6.16463 30.6018 5.17777 32.3471 4.47096C34.0924 3.76415 35.9976 3.41074 38.0627 3.41074H45.9485C46.3082 3.41074 46.648 3.47742 46.9677 3.61078C47.2875 3.74415 47.5672 3.93085 47.8071 4.1709C48.0469 4.41095 48.2334 4.691 48.3666 5.01107C48.4999 5.33113 48.5665 5.6712 48.5665 6.03127V32.0965ZM28.9297 19.8541H43.3705V8.61179H38.0627C37.9028 8.61179 37.563 8.63846 37.0434 8.69181C36.5372 8.73182 35.9443 8.84517 35.2648 9.03188C34.5987 9.21858 33.8926 9.5053 33.1465 9.89205C32.4004 10.2788 31.7142 10.8122 31.0881 11.4924C30.4619 12.1725 29.9423 13.026 29.5293 14.0529C29.1296 15.0664 28.9297 16.3 28.9297 17.7536V19.8541Z" fill="white"/>
<path d="M87.7517 32.0965V30.6799L91.4621 29.7992V5.02685H84.4622L82.9704 10.6169H80.9814V3.38046H106.074V10.6169H104.085L102.593 5.02685H95.4784V29.8375L99.38 30.6799V32.0965H87.7517Z" fill="white"/>
<path d="M122.766 32.5632C114.554 32.5632 107.848 25.8508 107.848 17.6667C107.848 9.41083 114.554 2.66256 122.784 2.66256C130.996 2.66256 137.737 9.41083 137.737 17.6667C137.737 25.8508 130.996 32.5632 122.766 32.5632ZM122.766 27.9686C128.468 27.9686 133.147 23.3202 133.147 17.6308C133.147 11.9055 128.468 7.23918 122.766 7.23918C117.064 7.23918 112.42 11.9055 112.42 17.6308C112.42 23.3202 117.064 27.9686 122.766 27.9686Z" fill="white"/>
<path d="M146.064 33.4902C144.922 33.4902 144.119 33.2937 143.655 32.9006C143.226 32.5075 143.012 32.0072 143.012 31.3997C143.012 31.0066 143.065 30.6135 143.173 30.2204C143.315 29.7916 143.458 29.3628 143.601 28.9339C144.065 27.7904 144.547 26.6647 145.047 25.5569C145.582 24.4491 146.136 23.3592 146.707 22.2871C147.278 21.1793 147.956 19.8571 148.742 18.3205C149.527 16.7838 150.295 15.1757 151.045 13.4962C151.83 11.7809 152.473 10.1192 152.972 8.51106C153.508 6.90296 153.776 5.49141 153.776 4.2764H149.063C148.528 4.2764 147.778 4.31213 146.814 4.38361C145.886 4.45508 144.922 4.61588 143.922 4.86603C142.958 5.11618 142.155 5.52714 141.512 6.09891C140.87 6.67068 140.584 7.43899 140.656 8.40385C140.691 8.68974 140.798 9.08283 140.977 9.58313C141.155 10.0477 141.28 10.3336 141.352 10.4408L140.763 10.8696C140.549 10.4765 140.281 10.0298 139.96 9.52952C139.638 8.99349 139.353 8.47532 139.103 7.97503C138.853 7.47473 138.71 7.09951 138.674 6.84936C138.674 6.77789 138.656 6.68855 138.621 6.58134C138.621 6.47413 138.621 6.36693 138.621 6.25972C138.621 5.86663 138.692 5.47354 138.835 5.08045C138.978 4.65162 139.228 4.2764 139.585 3.95478C140.12 3.49022 140.852 3.18646 141.78 3.04352C142.744 2.90058 143.726 2.82911 144.726 2.82911C145.689 2.82911 146.618 2.86484 147.51 2.93632C148.403 3.00779 149.135 3.04352 149.706 3.04352C149.706 3.04352 150.116 3.04352 150.937 3.04352C151.759 3.04352 152.794 3.04352 154.043 3.04352C155.329 3.00778 156.685 2.98992 158.113 2.98992C159.541 2.98992 160.844 2.98992 162.023 2.98992L161.326 3.79397C160.684 3.79397 160.005 3.90118 159.291 4.11559C158.613 4.29427 158.024 4.68736 157.524 5.29486C156.775 6.25972 155.936 7.52833 155.007 9.1007C154.079 10.6731 153.133 12.4062 152.169 14.3002C151.205 16.1942 150.313 18.0882 149.492 19.9822C148.67 21.8762 147.974 23.6629 147.403 25.3425C146.868 26.9863 146.528 28.38 146.386 29.5236C146.35 30.1668 146.493 30.6314 146.814 30.9172C147.171 31.2031 147.635 31.3461 148.206 31.3461C148.956 31.3461 149.688 31.1495 150.402 30.7564C151.83 30.0417 153.258 29.0411 154.686 27.7547C156.114 26.4324 157.471 25.0209 158.756 23.52C160.041 22.0191 161.13 20.6254 162.023 19.3389C163.451 17.302 164.825 15.0864 166.146 12.6921C167.503 10.2978 168.663 8.0465 169.627 5.9381C169.877 5.50928 170.091 5.02684 170.269 4.49081C170.484 3.91904 170.769 3.63316 171.126 3.63316C171.269 3.63316 171.447 3.65103 171.662 3.68676C171.876 3.7225 172.108 3.74036 172.358 3.74036C173.465 3.74036 174.482 3.29367 175.41 2.40028C175.446 2.36455 175.535 2.34668 175.678 2.34668C175.821 2.34668 175.928 2.38241 175.999 2.45388C176.106 2.48962 176.124 2.54322 176.053 2.6147C175.267 3.25794 174.607 3.90118 174.071 4.54442C173.536 5.18766 172.947 6.00957 172.304 7.01017C171.555 8.1537 170.698 9.47592 169.734 10.9768C168.806 12.4777 167.86 14.0501 166.896 15.6939C165.932 17.3377 165.057 18.9637 164.272 20.5718C163.486 22.1799 162.879 23.6451 162.451 24.9673C162.237 25.6463 162.058 26.3252 161.915 27.0042C161.773 27.6832 161.701 28.3086 161.701 28.8803C161.701 29.738 161.88 30.4348 162.237 30.9708C162.629 31.5069 163.272 31.7749 164.165 31.7749C164.343 31.7749 164.504 31.7749 164.647 31.7749C164.825 31.7392 165.004 31.7034 165.182 31.6677C165.86 31.5605 166.628 31.1853 167.485 30.542C168.377 29.863 169.216 29.1305 170.002 28.3443C170.787 27.6296 171.447 26.9506 171.983 26.3074C172.554 25.6284 173.161 24.8958 173.804 24.1096C173.875 24.2526 173.911 24.3955 173.911 24.5385C173.875 24.7886 173.786 25.0387 173.643 25.2889C173.536 25.539 173.393 25.7535 173.215 25.9321C172.965 26.2538 172.59 26.7183 172.09 27.3258C171.59 27.8976 171.037 28.5051 170.43 29.1483C170.002 29.5772 169.359 30.1489 168.502 30.8636C167.645 31.5426 166.717 32.1501 165.718 32.6862C164.754 33.2222 163.843 33.4902 162.986 33.4902C161.666 33.4902 160.755 33.1328 160.255 32.4181C159.756 31.7392 159.506 30.8994 159.506 29.8988C159.506 28.648 159.756 27.2722 160.255 25.7713C160.791 24.2704 161.291 22.9125 161.755 21.6975C161.005 22.5909 160.22 23.4485 159.399 24.2704C158.577 25.0566 157.756 25.8607 156.935 26.6826C156.078 27.5045 155.204 28.3443 154.311 29.2019C153.454 30.0239 152.562 30.7743 151.634 31.4533C150.777 32.025 149.884 32.5075 148.956 32.9006C148.028 33.2937 147.064 33.4902 146.064 33.4902Z" fill="white"/>
<path d="M52.6787 35V0H78.614V35H52.6787ZM74.4521 12.224L77.2997 12.0047L76.4235 3.32195H54.8692L54.0368 12.0047L56.8406 12.224L57.7168 6.1285H64.0254V29.0194H59.1187V31.826H72.2616V29.0194H67.2235V6.1285H73.5759L74.4521 12.224Z" fill="white"/>
<path d="M179.161 32.6303V3.16309H199.76V7.37269H202.001V20.0015H196.327V24.2111H199.76V28.4207L202.001 28.4206V32.6302L192.894 32.6303V28.4207H189.461V24.2111H183.878V32.6303H179.161ZM183.878 20.0015H192.894V15.7919H196.327V7.37269H183.878V20.0015Z" fill="white"/>
</svg>
