<svg width="253" height="224" viewBox="0 0 253 224" fill="none" xmlns="http://www.w3.org/2000/svg">
<path fill-rule="evenodd" clip-rule="evenodd" d="M0 0H253L253 136.399C246.864 136.399 241.891 141.365 241.891 147.49C241.891 153.616 246.864 158.582 253 158.582L253 224H0V158.582C6.1355 158.582 11.1093 153.616 11.1093 147.49C11.1093 141.365 6.1355 136.399 0 136.399V0Z" fill="#FF3767"/>
<path d="M11.0947 147.49L241.842 147.49" stroke="white" stroke-opacity="0.29" stroke-dasharray="3.7 3.7"/>
<path d="M43.1313 103.566C34.3803 103.566 28.1215 98.8086 27.9516 91.8984H35.3715C35.5697 95.1836 38.8549 97.3643 43.1313 97.3359C47.6342 97.3643 50.891 94.8721 50.891 91.2188C50.891 87.5371 47.7191 84.9033 42.3949 84.875H38.7133V79.2109H42.3949C46.7563 79.2109 49.7865 76.7754 49.7582 73.207C49.7865 69.752 47.1811 67.4297 43.1879 67.4297C39.3363 67.4297 36.0229 69.582 35.8813 73.0371H28.8012C28.9711 66.1553 35.2299 61.4258 43.2445 61.4258C51.5707 61.4258 56.9516 66.5234 56.8949 72.8105C56.9516 77.3984 53.893 80.7119 49.4184 81.6465V81.9863C55.1957 82.751 58.4809 86.4609 58.4242 91.6152C58.4809 98.5537 51.9955 103.566 43.1313 103.566ZM69.5847 98.9785L64.8269 114.838H59.446L62.3913 98.9785H69.5847ZM112.067 82.4961C112.096 95.75 103.996 103.566 93.2627 103.566C82.4727 103.566 74.4297 95.7217 74.4581 82.4961C74.4297 69.2422 82.4727 61.4258 93.2627 61.4258C103.996 61.4258 112.096 69.2422 112.067 82.4961ZM81.878 82.4961C81.8497 91.8701 86.5791 96.9395 93.2627 96.9395C99.9747 96.9395 104.676 91.8701 104.648 82.4961C104.676 73.1221 99.9747 68.0527 93.2627 68.0527C86.5791 68.0527 81.8497 73.1221 81.878 82.4961ZM152.908 82.4961C152.936 95.75 144.836 103.566 134.103 103.566C123.313 103.566 115.27 95.7217 115.298 82.4961C115.27 69.2422 123.313 61.4258 134.103 61.4258C144.836 61.4258 152.936 69.2422 152.908 82.4961ZM122.718 82.4961C122.69 91.8701 127.419 96.9395 134.103 96.9395C140.815 96.9395 145.516 91.8701 145.488 82.4961C145.516 73.1221 140.815 68.0527 134.103 68.0527C127.419 68.0527 122.69 73.1221 122.718 82.4961ZM193.748 82.4961C193.776 95.75 185.676 103.566 174.943 103.566C164.153 103.566 156.11 95.7217 156.138 82.4961C156.11 69.2422 164.153 61.4258 174.943 61.4258C185.676 61.4258 193.776 69.2422 193.748 82.4961ZM163.558 82.4961C163.53 91.8701 168.259 96.9395 174.943 96.9395C181.655 96.9395 186.356 91.8701 186.328 82.4961C186.356 73.1221 181.655 68.0527 174.943 68.0527C168.259 68.0527 163.53 73.1221 163.558 82.4961ZM197.998 103V61.9922H213.404C222.807 61.9922 227.819 67.7129 227.848 75.5859C227.819 83.4307 222.75 89.123 213.291 89.123H205.361V103H197.998ZM205.361 83.0625H212.271C217.822 83.0342 220.314 79.9189 220.314 75.5859C220.314 71.1963 217.822 68.166 212.271 68.166H205.361V83.0625Z" fill="#0C0D11"/>
<path d="M107.194 34V24.1016H110.721C113.025 24.1016 114.153 25.4824 114.153 27.3145C114.153 29.1396 113.018 30.5273 110.721 30.5273H108.698V34H107.194ZM108.698 29.2422H110.571C112.027 29.249 112.636 28.4287 112.636 27.3145C112.636 26.1934 112.027 25.3936 110.571 25.3867H108.698V29.2422ZM124.199 29.0508C124.199 32.2158 122.298 34.1367 119.742 34.1367C117.165 34.1367 115.271 32.209 115.271 29.0508C115.271 25.8857 117.165 23.9648 119.742 23.9648C122.298 23.9648 124.199 25.8857 124.199 29.0508ZM116.761 29.0508C116.768 31.457 118.033 32.7627 119.742 32.7559C121.437 32.7627 122.702 31.457 122.708 29.0508C122.702 26.6445 121.437 25.3389 119.742 25.3457C118.033 25.3389 116.768 26.6445 116.761 29.0508ZM127.258 24.1016V34H125.754V24.1016H127.258ZM137.112 24.1016V34H135.731L130.714 26.7676H130.632V34H129.128V24.1016H130.522L135.54 31.3477H135.635V24.1016H137.112ZM138.503 25.4004V24.1016H146.173V25.4004H143.097V34H141.593V25.4004H138.503Z" fill="#0C0D11"/>
<path d="M67.4516 176.595H66.6352L66.6997 174.994L65.3462 175.854L64.938 175.145L66.3667 174.414L64.938 173.673L65.3462 172.964L66.6997 173.823L66.6352 172.223H67.4516L67.3764 173.823L68.73 172.964L69.1489 173.673L67.7202 174.414L69.1489 175.145L68.73 175.854L67.3764 174.994L67.4516 176.595ZM77.5038 171.288V175.016H79.0506V175.875H77.5038V180.913H76.4832V171.288H77.5038ZM70.3709 178.625V172.094H71.3807V174.564H73.9266V172.094H74.9364V178.625H70.3709ZM71.3807 177.787H73.9266V175.37H71.3807V177.787ZM88.2111 178.904V179.764H79.4025V178.904H83.2805V177.218H80.4768V174.156H86.1271V172.803H80.4553V171.965H87.1369V174.973H81.4865V176.38H87.3625V177.218H84.2902V178.904H88.2111ZM100.184 178.851V179.71H91.3749V178.851H100.184ZM92.1269 173.05V172.212H99.3779V173.05H97.9062V176.262H99.3456V177.078H92.1484V176.262H93.5878V173.05H92.1269ZM94.5976 176.262H96.9071V173.05H94.5976V176.262ZM109.58 178.904V179.764H100.772V178.904H104.65V177.218H101.846V174.156H107.496V172.803H101.824V171.965H108.506V174.973H102.856V176.38H108.732V177.218H105.659V178.904H109.58ZM118.172 171.288V176.262H117.14V171.288H118.172ZM110.33 175.155C110.695 175.155 111.092 175.15 111.501 175.145V172.728H110.588V171.922H115.819V172.728H114.895V175.005C115.362 174.973 115.824 174.93 116.259 174.876L116.302 175.617C114.38 175.907 112.14 175.977 110.448 175.972L110.33 175.155ZM111.78 177.508V176.702H118.172V179.087H112.811V180H118.505V180.816H111.812V178.346H117.162V177.508H111.78ZM112.478 175.123C112.951 175.107 113.434 175.091 113.918 175.064V172.728H112.478V175.123ZM127.848 171.288V180.913H126.87V171.288H127.848ZM119.673 175.445C119.673 173.361 120.489 172.056 121.746 172.062C122.917 172.056 123.707 173.168 123.825 174.973H124.915V171.471H125.893V180.44H124.915V175.8H123.83C123.739 177.68 122.938 178.845 121.746 178.84C120.489 178.845 119.673 177.535 119.673 175.445ZM120.618 175.445C120.618 176.976 121.053 177.878 121.746 177.873C122.455 177.878 122.896 176.976 122.896 175.445C122.896 173.909 122.455 173.012 121.746 173.018C121.053 173.012 120.618 173.909 120.618 175.445ZM134.986 172.996C134.981 174.21 135.851 175.397 137.306 175.896L136.78 176.691C135.7 176.321 134.9 175.547 134.481 174.597C134.062 175.655 133.219 176.503 132.075 176.906L131.549 176.101C133.026 175.596 133.949 174.312 133.944 173.007V172.738H131.86V171.911H137.049V172.738H134.986V172.996ZM133.042 178.356V177.529H139.562V180.913H138.542V178.356H133.042ZM136.759 174.575V173.737H138.542V171.288H139.562V177.046H138.542V174.575H136.759ZM148.916 171.299V176.605H147.896V171.299H148.916ZM141.418 172.577V171.75H145.844V174.436H142.439V175.574C144.125 175.569 145.355 175.526 146.821 175.284L146.95 176.111C145.377 176.369 144.066 176.412 142.245 176.423H141.44V173.641H144.834V172.577H141.418ZM142.6 180.795V177.057H143.62V178.099H147.906V177.057H148.916V180.795H142.6ZM143.62 179.968H147.906V178.904H143.62V179.968ZM155.09 172.878V173.705H150.31V172.878H152.201V171.567H153.21V172.878H155.09ZM150.622 176.498C150.616 175.204 151.497 174.285 152.706 174.285C153.925 174.285 154.795 175.204 154.8 176.498C154.795 177.814 153.925 178.738 152.706 178.732C151.497 178.738 150.616 177.814 150.622 176.498ZM151.524 176.498C151.518 177.314 152.013 177.862 152.706 177.862C153.398 177.862 153.898 177.314 153.898 176.498C153.898 175.698 153.398 175.139 152.706 175.134C152.013 175.139 151.518 175.698 151.524 176.498ZM155.531 180.462V171.503H156.497V175.295H157.604V171.288H158.571V180.913H157.604V176.133H156.497V180.462H155.531ZM167.527 175.854V176.691H160.824V172.147H167.441V172.985H161.834V175.854H167.527ZM159.728 179.646V178.797H168.537V179.646H159.728ZM177.139 171.288V180.935H176.129V176.906H174.249V176.058H176.129V174.274H174.303V173.437H176.129V171.288H177.139ZM169.458 172.964V172.137H173.723V175.649H170.5V177.862C171.859 177.857 173.008 177.792 174.378 177.594L174.464 178.432C172.96 178.668 171.73 178.711 170.21 178.711H169.48V174.844H172.724V172.964H169.458ZM187.331 178.861V179.71H178.522V178.861H180.627V176.348C179.838 175.913 179.355 175.225 179.36 174.36C179.355 172.846 180.842 171.852 182.905 171.847C184.973 171.852 186.46 172.846 186.46 174.36C186.46 175.209 185.999 175.891 185.225 176.326V178.861H187.331ZM180.348 174.36C180.348 175.392 181.396 176.063 182.905 176.068C184.403 176.063 185.467 175.392 185.472 174.36C185.467 173.324 184.403 172.663 182.905 172.663C181.396 172.663 180.348 173.324 180.348 174.36ZM181.637 178.861H184.194V176.724C183.802 176.815 183.367 176.863 182.905 176.863C182.454 176.863 182.024 176.815 181.637 176.724V178.861Z" fill="#0C0D11"/>
<path d="M35.4313 195.595H34.6149L34.6794 193.994L33.3259 194.854L32.9177 194.145L34.3464 193.414L32.9177 192.673L33.3259 191.964L34.6794 192.823L34.6149 191.223H35.4313L35.3561 192.823L36.7096 191.964L37.1286 192.673L35.6999 193.414L37.1286 194.145L36.7096 194.854L35.3561 193.994L35.4313 195.595ZM42.8946 191.266C42.8892 194.102 41.9654 196.626 38.544 198.366L37.9746 197.593C39.6612 196.733 40.7032 195.697 41.2886 194.472L38.168 194.768L38.0069 193.887L41.6001 193.661C41.7505 193.167 41.8418 192.641 41.8794 192.093H38.501V191.266H42.8946ZM42.8731 194.939V194.102H44.9893V190.288H45.9991V199.913H44.9893V194.939H42.8731ZM52.2699 191.652C52.2699 193.221 53.9403 194.703 55.7934 195.036L55.3207 195.885C53.7792 195.552 52.3666 194.542 51.7436 193.188C51.1098 194.537 49.6972 195.541 48.1557 195.885L47.7045 195.036C49.5307 194.692 51.1903 193.221 51.1957 191.652V190.922H52.2699V191.652ZM47.3822 198.646V197.797H56.1908V198.646H47.3822ZM64.8035 190.288V195.971H63.783V193.5H61.9783V192.662H63.783V190.288H64.8035ZM57.2625 195.552V190.857H61.6238V191.674H58.2722V192.759H61.3445V193.554H58.2722V194.714C59.9212 194.714 60.9041 194.671 62.075 194.467L62.1716 195.294C60.9094 195.514 59.8352 195.562 57.9822 195.552H57.2625ZM58.4548 199.795V196.433H64.8035V199.795H58.4548ZM59.4646 198.968H63.8045V197.26H59.4646V198.968ZM73.6929 191.137V191.975H70.1909V193.833H73.4995V194.649H70.1909V196.809C71.7969 196.798 72.9892 196.739 74.3804 196.508L74.477 197.335C72.9892 197.582 71.7109 197.63 69.9331 197.636H69.1596V191.137H73.6929ZM75.229 199.913V190.288H76.2495V194.08H77.7964V194.939H76.2495V199.913H75.229ZM86.9461 196.067V196.905H83.036V199.913H82.0262V196.905H78.1375V196.067H86.9461ZM79.2977 195.176V190.718H85.8612V191.534H80.2967V192.522H85.6463V193.317H80.2967V194.359H85.9686V195.176H79.2977ZM96.343 194.703V195.487H87.5344V194.703H96.343ZM88.5764 196.895V196.164H95.258V198.28H89.6076V199.075H95.5588V199.795H88.5871V197.604H94.2482V196.895H88.5764ZM88.6408 191.255V190.535H95.2365V192.619H89.6721V193.35H95.3977V194.069H88.6623V191.942H94.216V191.255H88.6408ZM102.611 199.107C101 199.107 99.8559 198.243 99.8075 196.97H101.011C101.054 197.652 101.73 198.087 102.601 198.087C103.54 198.087 104.223 197.577 104.223 196.819C104.223 196.051 103.583 195.503 102.472 195.498H101.806V194.531H102.472C103.358 194.537 103.976 194.042 103.976 193.296C103.976 192.587 103.444 192.104 102.622 192.104C101.843 192.104 101.145 192.539 101.118 193.242H99.9794C100.012 191.975 101.183 191.115 102.633 191.115C104.163 191.115 105.125 192.082 105.114 193.231C105.125 194.118 104.577 194.751 103.739 194.961V195.015C104.803 195.165 105.42 195.879 105.415 196.862C105.42 198.157 104.223 199.107 102.611 199.107ZM114.296 190.299V197.41H113.276V193.779H111.17V195.81H106.734V190.933H107.754V192.565H110.16V190.933H111.17V192.952H113.276V190.299H114.296ZM107.754 194.982H110.16V193.35H107.754V194.982ZM108.012 199.709V196.712H109.043V198.882H114.511V199.709H108.012ZM127.042 195.81V196.637H123.11V199.902H122.111V196.637H118.233V195.81H127.042ZM119.34 194.585V190.804H125.936V194.585H119.34ZM120.339 193.79H124.915V191.62H120.339V193.79ZM136.45 197.904V198.764H127.641V197.904H130.047V196.207H128.715V193.146H134.366V191.803H128.694V190.965H135.375V193.973H129.725V195.369H135.601V196.207H134.14V197.904H136.45ZM131.036 197.904H133.141V196.207H131.036V197.904ZM145.846 197.904V198.764H137.038V197.904H140.916V196.218H138.112V193.156H143.762V191.803H138.091V190.965H144.772V193.973H139.122V195.38H144.998V196.218H141.926V197.904H145.846ZM156.992 190.299V197.346H155.971V190.299H156.992ZM149.064 195.176C150.573 194.617 151.465 193.231 151.47 191.781V190.825H152.512V191.781C152.507 193.188 153.398 194.478 154.886 194.993L154.36 195.81C153.248 195.396 152.426 194.58 151.997 193.538C151.572 194.655 150.74 195.546 149.612 195.981L149.064 195.176ZM150.697 199.709V196.68H151.728V198.882H157.282V199.709H150.697ZM161.78 192.34C161.78 193.473 162.709 194.531 164.176 194.939L163.692 195.734C162.575 195.417 161.737 194.73 161.297 193.838C160.878 194.832 160.04 195.622 158.89 195.981L158.407 195.197C159.868 194.73 160.77 193.581 160.77 192.34V192.222H158.676V191.405H160.77V190.245H161.791V191.405H163.875V192.222H161.78V192.34ZM159.954 198.108C159.949 196.98 161.189 196.341 163.209 196.336C165.223 196.341 166.458 196.98 166.464 198.108C166.458 199.242 165.223 199.897 163.209 199.892C161.189 199.897 159.949 199.242 159.954 198.108ZM160.964 198.108C160.958 198.731 161.796 199.102 163.209 199.107C164.621 199.102 165.449 198.731 165.454 198.108C165.449 197.485 164.621 197.131 163.209 197.131C161.796 197.131 160.958 197.485 160.964 198.108ZM163.574 193.822V192.984H165.411V190.288H166.431V196.121H165.411V193.822H163.574ZM175.366 190.256V192.512H176.774V193.35H175.366V195.552H174.346V190.256H175.366ZM167.815 191.91V191.104H170.178V190.202H171.198V191.104H173.551V191.91H167.815ZM168.341 193.854C168.336 192.882 169.27 192.275 170.683 192.275C172.095 192.275 173.014 192.882 173.014 193.854C173.014 194.832 172.095 195.428 170.683 195.423C169.27 195.428 168.336 194.832 168.341 193.854ZM169.147 196.766V196.003H175.366V198.237H170.167V199.043H175.699V199.816H169.168V197.518H174.357V196.766H169.147ZM169.329 193.854C169.319 194.375 169.85 194.682 170.683 194.682C171.51 194.682 172.047 194.375 172.058 193.854C172.047 193.333 171.51 193.011 170.683 193.006C169.85 193.011 169.319 193.333 169.329 193.854ZM184.707 191.137C184.702 192.415 186.265 193.613 188.155 193.865L187.758 194.703C186.184 194.451 184.804 193.634 184.175 192.501C183.547 193.634 182.166 194.451 180.603 194.703L180.195 193.865C182.08 193.613 183.638 192.431 183.643 191.137V190.61H184.707V191.137ZM179.776 196.486V195.648H188.553V196.486H184.642V199.913H183.643V196.486H179.776ZM195.089 196.647C195.089 197.475 195.498 198.35 196.373 198.871C197.254 198.307 197.689 197.389 197.689 196.647V196.186H198.688V196.647C198.683 197.646 199.343 198.613 200.6 199.021L200.095 199.773C199.145 199.446 198.495 198.801 198.162 198.017C197.856 198.791 197.281 199.494 196.4 199.859C195.476 199.51 194.891 198.828 194.595 198.044C194.246 198.801 193.612 199.44 192.705 199.773L192.189 199.021C193.424 198.581 194.096 197.577 194.101 196.647V196.186H195.089V196.647ZM191.942 193.103C191.947 191.754 193.032 190.831 194.509 190.825C195.981 190.831 197.066 191.754 197.066 193.103C197.066 194.435 195.981 195.358 194.509 195.358C193.032 195.358 191.947 194.435 191.942 193.103ZM192.941 193.103C192.936 193.94 193.596 194.51 194.509 194.51C195.412 194.51 196.067 193.94 196.067 193.103C196.067 192.259 195.412 191.69 194.509 191.695C193.596 191.69 192.936 192.259 192.941 193.103ZM198.71 195.777V190.299H199.73V195.777H198.71ZM203.756 191.008C205.066 191.013 206.017 192.12 206.173 193.897H208.16V190.288H209.17V199.935H208.16V194.725H206.184C206.071 196.604 205.099 197.77 203.756 197.765C202.322 197.77 201.307 196.459 201.317 194.381C201.307 192.324 202.322 191.013 203.756 191.008ZM202.284 194.381C202.29 195.912 202.886 196.852 203.756 196.852C204.626 196.852 205.222 195.912 205.228 194.381C205.222 192.872 204.626 191.926 203.756 191.921C202.886 191.926 202.29 192.872 202.284 194.381ZM219.351 197.861V198.71H210.542V197.861H212.648V195.348C211.858 194.913 211.375 194.225 211.38 193.36C211.375 191.846 212.863 190.852 214.925 190.847C216.993 190.852 218.481 191.846 218.481 193.36C218.481 194.209 218.019 194.891 217.245 195.326V197.861H219.351ZM212.368 193.36C212.368 194.392 213.416 195.063 214.925 195.068C216.424 195.063 217.487 194.392 217.492 193.36C217.487 192.324 216.424 191.663 214.925 191.663C213.416 191.663 212.368 192.324 212.368 193.36ZM213.658 197.861H216.214V195.724C215.822 195.815 215.387 195.863 214.925 195.863C214.474 195.863 214.044 195.815 213.658 195.724V197.861Z" fill="#0C0D11"/>
</svg>
