<svg width="204" height="49" viewBox="0 0 204 49" fill="none" xmlns="http://www.w3.org/2000/svg">
<path d="M8.90283 37.6443L0.495872 10.9812H4.96975L9.86971 27.2871L15.9168 12.0956H16.0807L22.1278 27.2708L27.0114 10.9812H31.4853L23.0947 37.6443H22.7178L15.9496 21.7153L9.27975 37.6443H8.90283Z" fill="#191B21"/>
<path d="M60.9014 38.2998V9.2998H85.0518V38.2998H60.9014ZM63.128 36.4451H82.7824L83.6388 28.4119L80.8555 28.2187L79.9991 33.9733H69.7651V13.8129H74.4325V11.3412H63.128V13.8129H66.6392V33.9733H63.128V36.4451Z" fill="#191B21"/>
<path d="M126.224 37.7747C118.718 37.7747 112.589 31.6457 112.589 24.1728C112.589 16.6344 118.718 10.4726 126.24 10.4726C133.746 10.4726 139.908 16.6344 139.908 24.1728C139.908 31.6457 133.746 37.7747 126.224 37.7747ZM126.224 33.5794C131.435 33.5794 135.712 29.335 135.712 24.14C135.712 18.9123 131.435 14.6515 126.224 14.6515C121.012 14.6515 116.768 18.9123 116.768 24.14C116.768 29.335 121.012 33.5794 126.224 33.5794Z" fill="#191B21"/>
<path d="M109.624 28.5745V34.4828C107.55 36.6504 104.66 37.7342 100.954 37.7342C97.2483 37.7342 94.1601 36.4989 91.6896 34.0283C89.2423 31.5345 88.0187 28.2132 88.0187 24.0645C88.0187 19.8926 89.2656 16.5829 91.7595 14.1357C94.2534 11.6651 97.3416 10.4299 101.024 10.4299C104.73 10.4299 107.597 11.3971 109.624 13.3316V18.9952H107.806L106.093 13.4365C104.812 12.2944 103.122 11.7234 101.024 11.7234C98.3671 11.7234 96.2112 12.7839 94.5564 14.9048C92.9016 17.0025 92.0742 19.9974 92.0742 23.8897C92.0742 27.7587 92.8666 30.8003 94.4515 33.0145C96.0597 35.2287 98.2039 36.3357 100.884 36.3357C103.052 36.3357 104.835 35.6831 106.233 34.3779L107.981 28.5745H109.624Z" fill="#191B21"/>
<path d="M55.5584 26.3442H40.5623V21.5586H55.5584V26.3442ZM57.6954 37.0479H40.5623C39.9047 37.0479 39.1863 36.9322 38.407 36.7008C37.6276 36.4694 36.9031 36.092 36.2334 35.5683C35.5758 35.0325 35.0217 34.3445 34.5712 33.5043C34.1328 32.6519 33.9136 31.6108 33.9136 30.3809V13.2478C33.9136 12.919 33.9745 12.6085 34.0963 12.3162C34.218 12.024 34.3824 11.7682 34.5894 11.5491C34.8086 11.3299 35.0644 11.1594 35.3566 11.0376C35.6489 10.9159 35.9655 10.855 36.3064 10.855H57.6954V15.604H38.6627V30.3809C38.6627 31.0019 38.8271 31.4768 39.1559 31.8056C39.4846 32.1344 39.9656 32.2988 40.5988 32.2988H57.6954V37.0479Z" fill="#191B21"/>
<path fill-rule="evenodd" clip-rule="evenodd" d="M180.246 34.1289V13.8276H183.474V10.8633H203.002V14.6012H184.314V22.0769H199.264V25.8148H184.314V33.2906H203.002V37.0285H183.474V34.1289H180.246Z" fill="#191B21"/>
<path d="M145.421 36.6553C144.415 36.7602 143.429 36.5843 142.462 36.1273C141.493 35.638 140.72 34.8328 140.144 33.7119C139.938 33.3069 139.778 32.8806 139.666 32.4331C139.55 31.953 139.469 31.4858 139.421 31.0315C139.374 30.5771 139.431 30.3415 139.594 30.3246C139.788 30.3042 139.899 30.4239 139.926 30.6835C140.085 32.2089 140.579 33.322 141.406 34.023C142.267 34.7207 143.264 35.0102 144.4 34.8917C145.536 34.7732 146.589 34.3353 147.56 33.5778C148.563 32.817 149.467 31.8862 150.27 30.7853C151.594 29.0069 152.688 27.2359 153.554 25.4724C154.417 23.6764 155.178 21.8582 155.839 20.0177C156.529 18.1413 156.219 17.124 156.895 15.1178C157.325 13.8919 156.555 16.3793 157.275 15.4184C158.027 14.4541 157.058 12.837 158.192 12.3906L158.236 12.3368L155.558 12.6161C154.423 12.7346 153.227 12.9086 151.972 13.138C150.716 13.3674 149.586 13.6986 148.582 14.1315C147.609 14.561 146.93 15.124 146.543 15.8204C146.295 16.2728 146.2 16.7749 146.258 17.3266C146.315 17.8783 146.517 18.3985 146.863 18.8873C147.21 19.3761 147.622 19.7104 148.1 19.8902C148.171 19.9483 148.209 19.9936 148.212 20.0261C148.219 20.091 148.146 20.1806 147.994 20.2949C147.871 20.3733 147.727 20.4048 147.561 20.3892C147.285 20.2541 146.933 20.0283 146.507 19.7119C146.076 19.3631 145.677 18.9947 145.309 18.6066C144.973 18.2152 144.741 17.8785 144.613 17.5966C144.442 17.2207 144.337 16.838 144.296 16.4486C144.215 15.6697 144.425 15.0081 144.926 14.4637C145.459 13.9159 146.166 13.4648 147.048 13.1104C147.93 12.756 148.884 12.4759 149.913 12.2702C150.97 12.0286 151.986 11.8571 152.959 11.7555C153.962 11.6181 154.82 11.5121 155.534 11.4376L160.791 10.8891C160.856 10.8824 160.89 10.8952 160.893 10.9276C160.904 11.025 160.805 11.1829 160.598 11.4013C160.421 11.5839 160.299 11.6786 160.234 11.6854C159.44 11.9323 158.885 12.433 158.57 13.1877C158.252 13.9098 158.189 15.0319 158.38 16.5538C158.38 16.5538 158.418 16.9108 158.492 17.6248C158.599 18.3354 158.728 19.2569 158.879 20.3894C159.03 21.5219 159.189 22.7356 159.357 24.0303C159.525 25.3251 159.688 26.5712 159.846 27.7686C160.003 28.966 160.141 29.9687 160.258 30.7767L160.288 31.0687L175.32 11.4892C176.273 10.2416 177.228 9.17415 178.185 8.28691C179.171 7.36383 179.237 6.89172 180.383 6.87057C180.416 6.86719 180.434 6.88172 180.437 6.91418C180.469 6.91079 180.486 6.9091 180.486 6.9091C180.496 7.00646 180.443 7.12682 180.327 7.27018C180.21 7.41354 180.073 7.50991 179.914 7.55929C178.993 8.29883 179.338 8.01898 178.727 8.77161C178.117 9.52425 177.569 10.4016 177.083 11.4037C176.842 11.921 176.485 12.7456 176.012 13.8775C175.537 14.977 175 16.2797 174.403 17.7855C173.838 19.288 173.265 20.8733 172.685 22.5414C172.104 24.2095 171.569 25.8401 171.079 27.4331C170.622 29.0228 170.264 30.4708 170.007 31.7771C169.746 33.051 169.656 34.0774 169.737 34.8563C169.832 35.765 170.188 36.1872 170.805 36.1228C171.064 36.0957 171.333 36.002 171.612 35.8418C172.017 35.6355 172.462 35.343 172.947 34.9643C173.433 34.5856 173.864 34.1632 174.242 33.6973C175.001 32.7979 175.661 31.8925 176.222 30.981C176.78 30.037 177.117 29.4933 177.233 29.35C177.317 29.21 177.391 29.1366 177.456 29.1299C177.586 29.1163 177.661 29.2069 177.681 29.4016C177.702 29.5964 177.655 29.7816 177.542 29.9574C177.317 30.3091 176.938 30.9227 176.406 31.7984C175.871 32.6416 175.223 33.5129 174.464 34.4123C173.738 35.3083 172.926 36.0163 172.029 36.5364C171.75 36.6967 171.452 36.8262 171.134 36.925C170.82 37.0562 170.5 37.1388 170.176 37.1726C169.462 37.2471 168.791 37.1039 168.163 36.7429C167.564 36.3461 167.21 35.6285 167.102 34.59C166.997 33.5839 167.105 32.4243 167.428 31.1112C167.779 29.7623 168.184 28.4569 168.643 27.1952C169.131 25.8976 169.526 24.8066 169.827 23.9222C170.157 23.0019 170.576 21.8264 171.083 20.3956C171.59 18.9648 172.192 17.5076 172.89 16.0241L160.415 32.2858C160.41 32.5488 160.323 32.8203 160.156 33.1002C159.985 33.3477 159.697 33.5746 159.292 33.7809C159.075 33.9019 158.794 34.1937 158.448 34.6563C158.103 35.1188 157.874 35.438 157.761 35.6138C157.764 35.6462 157.717 35.6675 157.62 35.6777C157.522 35.6879 157.422 35.6656 157.318 35.6108C157.213 35.5561 157.176 35.5108 157.205 35.4749C157.937 34.3159 158.221 32.7936 158.057 30.9078L157.984 29.7344C157.907 28.3646 157.806 26.9315 157.683 25.4353C157.556 23.9066 157.425 22.4931 157.29 21.195C157.184 19.861 157.088 18.7883 157.003 17.977C156.915 17.1332 156.871 16.7113 156.871 16.7113C156.79 15.9324 156.833 15.239 156.999 14.6311C157.165 14.0232 157.475 13.2006 157.756 12.7448C157.851 13.6626 158.25 14.0872 157.792 14.7255C157.334 15.3639 158.055 14.6153 157.772 15.3665C157.391 16.4234 158.562 15.6163 158.111 17.2708C157.661 18.9254 157.123 20.6875 156.498 22.5571C155.905 24.4233 155.212 26.2673 154.418 28.0889C153.653 29.8747 152.75 31.4451 151.711 32.8003C150.991 33.7612 150.03 34.616 148.829 35.3646C147.66 36.1099 146.524 36.5401 145.421 36.6553Z" fill="#191B21"/>
<path d="M139.741 32.7095C139.53 32.0649 140.128 31.8579 140.312 32.4204L140.871 31.9471V30.4978L139.601 29.6943L138.416 31.2402L139.917 33.6316C139.929 33.5391 139.91 33.2251 139.741 32.7095Z" fill="white"/>
<path d="M177.48 10.6358C177.59 9.33112 176.583 9.99192 176.426 10.1221L174.838 9.36017L179.502 5.52832H181.129L180.514 9.36017L177.422 10.8151L177.48 10.6358Z" fill="white"/>
<path d="M158.709 34.3193C158.837 34.135 160.074 32.6572 160.676 31.9414H161.632V33.7799C160.604 34.0365 158.581 34.5037 158.709 34.3193Z" fill="white"/>
</svg>
