<svg width="102" height="18" viewBox="0 0 102 18" fill="none" xmlns="http://www.w3.org/2000/svg">
<path d="M12.3657 1.73328V4.00658H7.58751V16.3332H4.77815V4.00658H0V1.73328H12.3657Z" fill="#191B21"/>
<path d="M25.8817 16.3332H23.1974V12.7565H15.737V16.3332H13.0527V9.04768C13.0416 8.04232 13.231 7.04459 13.6102 6.11104C13.9619 5.24662 14.4888 4.46179 15.1589 3.80446C15.8302 3.15416 16.6271 2.64283 17.5025 2.30065C18.442 1.93459 19.4449 1.75168 20.4553 1.76208H24.5292C24.7099 1.76108 24.8889 1.79562 25.0558 1.86367C25.218 1.92941 25.3654 2.02611 25.4894 2.14819C25.6134 2.27028 25.7117 2.41533 25.7785 2.57498C25.8476 2.73923 25.8827 2.91543 25.8817 3.09322V16.3332ZM15.737 10.1146H23.1974V4.40402H20.4553C20.3727 4.40402 20.1971 4.41757 19.9287 4.44465C19.6177 4.47406 19.31 4.53188 19.0098 4.61737C18.6309 4.726 18.2642 4.87239 17.9155 5.05429C17.5154 5.26188 17.1555 5.53703 16.8521 5.8672C16.5058 6.24914 16.2329 6.68986 16.0468 7.16787C15.8403 7.68266 15.7371 8.30926 15.737 9.04768V10.1146Z" fill="#191B21"/>
<path d="M46.6108 16.3332V15.6139L48.5271 15.1667V2.5874H44.912L44.1415 5.42604H43.1143V1.7514H56.0733V5.42604H55.046L54.2756 2.5874H50.6013V15.1861L52.6163 15.6139V16.3332L46.6108 16.3332Z" fill="#191B21"/>
<path d="M64.3229 16.5687C60.1082 16.5687 56.6665 13.1814 56.6665 9.05138C56.6665 4.88512 60.1082 1.47968 64.3321 1.47968C68.5468 1.47968 72.0069 4.88512 72.0069 9.05138C72.0069 13.1814 68.5468 16.5687 64.3229 16.5687ZM64.3229 14.2501C67.2493 14.2501 69.6511 11.9043 69.6511 9.03323C69.6472 7.64363 69.0845 6.31206 68.0861 5.32946C67.0878 4.34686 65.7348 3.79311 64.3229 3.78919C61.3965 3.78919 59.0131 6.14407 59.0131 9.03323C59.0171 10.4172 59.5781 11.7432 60.5733 12.7209C61.5685 13.6987 62.9167 14.2485 64.3229 14.2501Z" fill="#191B21"/>
<path d="M75.2548 16.335C74.6989 16.335 74.3082 16.241 74.0825 16.053C73.9807 15.9628 73.8999 15.8519 73.8458 15.728C73.7918 15.604 73.7658 15.47 73.7695 15.3352C73.7699 15.1445 73.7963 14.9548 73.8479 14.7711C73.9174 14.566 73.9869 14.3609 74.0564 14.1558C74.282 13.6089 74.5164 13.0705 74.7595 12.5406C75.0202 12.0108 75.2894 11.4895 75.5671 10.9767C75.845 10.4469 76.175 9.81452 76.5571 9.07956C76.9389 8.34459 77.3122 7.57546 77.677 6.77215C78.0413 5.99802 78.3545 5.2016 78.6147 4.38784C78.8754 3.61868 79.0057 2.94355 79.0055 2.36244H76.7132C76.4532 2.36244 76.0886 2.37954 75.6194 2.41376C75.1447 2.45169 74.6741 2.52885 74.2126 2.64444C73.7796 2.74607 73.3776 2.94829 73.0403 3.23417C72.7278 3.50764 72.589 3.87511 72.6237 4.33658C72.6561 4.52934 72.7085 4.71832 72.78 4.90058C72.8296 5.04191 72.8907 5.17909 72.9626 5.31082L72.6758 5.51591C72.5715 5.32789 72.4413 5.11422 72.285 4.87492C72.1287 4.61858 71.9898 4.37075 71.8682 4.13143C71.7467 3.89215 71.6772 3.7127 71.6599 3.59309C71.658 3.54927 71.6492 3.50601 71.6338 3.46485V3.31102C71.6346 3.11845 71.6699 2.92754 71.738 2.74701C71.8093 2.53909 71.9351 2.35337 72.1027 2.2086C72.3632 1.98643 72.7193 1.84116 73.171 1.77278C73.6452 1.704 74.124 1.66972 74.6033 1.67023C75.0725 1.67023 75.524 1.68732 75.9579 1.72151C76.392 1.75569 76.7481 1.77278 77.0262 1.77278H79.1362C79.7615 1.75569 80.4215 1.74714 81.1161 1.74714H83.0176L82.6784 2.13169C82.3428 2.13523 82.0095 2.18705 81.6891 2.28552C81.3483 2.3777 81.0468 2.5755 80.8292 2.84959C80.3834 3.43102 79.9745 4.03892 79.6047 4.66984C79.1534 5.42186 78.6931 6.25083 78.224 7.15673C77.7555 8.06259 77.3214 8.96844 76.9217 9.8743C76.5227 10.7802 76.184 11.6348 75.9056 12.4381C75.6455 13.2243 75.4807 13.8909 75.411 14.4378C75.3938 14.7455 75.4632 14.9677 75.6194 15.1044C75.7928 15.2411 76.0191 15.3095 76.2963 15.3095C76.6711 15.307 77.039 15.2099 77.3647 15.0275C78.0595 14.6857 78.7541 14.2071 79.4485 13.5918C80.1477 12.9548 80.8087 12.2786 81.4284 11.5664C81.992 10.9265 82.5224 10.2591 83.0176 9.56664C83.7431 8.54288 84.4125 7.48167 85.0229 6.38757C85.6833 5.24244 86.2479 4.16567 86.7166 3.15725C86.8445 2.93762 86.9492 2.70566 87.029 2.46501C87.1328 2.19154 87.2718 2.0548 87.4459 2.05477C87.5333 2.0565 87.6205 2.06508 87.7066 2.08043C87.8185 2.09814 87.9317 2.10672 88.0451 2.10609C88.583 2.10609 89.0779 1.89244 89.5296 1.46513C89.5689 1.44264 89.6146 1.43362 89.6597 1.43949C89.688 1.43739 89.7164 1.44084 89.7433 1.44964C89.7702 1.45844 89.7951 1.47242 89.8165 1.49077C89.8681 1.50785 89.877 1.5335 89.842 1.56768C89.4919 1.8448 89.1692 2.15384 88.8782 2.49067C88.5679 2.86644 88.281 3.26026 88.0189 3.67C87.6543 4.21694 87.2374 4.84933 86.7682 5.56716C86.3169 6.285 85.8567 7.03704 85.3875 7.82331C84.919 8.60953 84.4937 9.38719 84.1114 10.1563C83.767 10.836 83.4712 11.5385 83.226 12.2586C83.1214 12.5833 83.0345 12.9081 82.9653 13.2329C82.8993 13.5276 82.8645 13.8284 82.8614 14.1302C82.8614 14.5404 82.9481 14.8736 83.1214 15.13C83.3127 15.3864 83.6252 15.5146 84.0591 15.5146H84.2937C84.3804 15.4975 84.4677 15.4804 84.5544 15.4633C84.8839 15.4121 85.2573 15.2326 85.6744 14.9249C86.1062 14.6021 86.5153 14.2509 86.8989 13.8738C87.2423 13.571 87.5643 13.2455 87.8627 12.8995C88.1407 12.5748 88.4358 12.2244 88.7481 11.8484C88.7818 11.9118 88.7998 11.9821 88.8004 12.0535C88.7807 12.1802 88.7366 12.302 88.6704 12.4124C88.6215 12.5271 88.5507 12.6316 88.4619 12.7201C88.3402 12.8739 88.1576 13.0961 87.9143 13.3867C87.6715 13.6602 87.4025 13.9507 87.1074 14.2584C86.8989 14.4634 86.5861 14.7369 86.169 15.0788C85.7448 15.4085 85.2915 15.7002 84.8145 15.9504C84.346 16.2068 83.9032 16.335 83.486 16.335C82.8435 16.335 82.4007 16.1641 82.1576 15.8223C81.9148 15.4975 81.7932 15.0959 81.793 14.6173C81.793 14.0191 81.9145 13.361 82.1576 12.6432C82.4184 11.9254 82.6614 11.2759 82.8868 10.6947C82.5222 11.122 82.1402 11.5322 81.7407 11.9254C81.3417 12.3013 80.9425 12.6859 80.543 13.079C80.1261 13.4721 79.7005 13.8738 79.2662 14.284C78.8568 14.6709 78.4218 15.0306 77.9639 15.3608C77.5528 15.6312 77.1168 15.8629 76.6616 16.053C76.2169 16.2396 75.7383 16.3356 75.2548 16.335Z" fill="#191B21"/>
<path d="M90.5317 16.2797V1.73199H100.874V3.81021H102V10.045H99.1509V12.1232H100.874V14.2014L102 14.2013V16.2796L97.4268 16.2797V14.2014H95.7034V12.1232H92.8999V16.2797H90.5317ZM92.8999 10.045H97.4268V7.96672H99.1509V3.81021H92.8999V10.045Z" fill="#191B21"/>
<path d="M28.2344 0V18H41.7426V0H28.2344ZM39.1186 3.17023H35.81V14.893H38.434V16.3303H31.5886V14.893H34.1442V3.17023H30.8584L30.402 6.29185L28.9417 6.17955L29.3752 1.73295H40.6017L41.0581 6.17955L39.5749 6.29185L39.1186 3.17023Z" fill="#191B21"/>
</svg>
