<svg width="375" height="108" viewBox="0 0 375 108" fill="none" xmlns="http://www.w3.org/2000/svg">
<rect width="375" height="107.824" fill="#FF3767"/>
<g opacity="0.11">
<path d="M45.4622 48.293V56.6371H27.8953V101.882H17.5667V56.6371H0V48.293H45.4622Z" fill="white"/>
<path d="M95.1535 101.882H85.2847V88.7539H57.8568V101.882H47.988V75.1409C47.947 71.4507 48.6434 67.7886 50.0378 64.362C51.3306 61.1892 53.2678 58.3085 55.7313 55.8957C58.1993 53.5088 61.1291 51.632 64.3475 50.3761C67.8017 49.0325 71.4887 48.3611 75.2035 48.3992H90.1812C90.8453 48.3956 91.5035 48.5224 92.1171 48.7721C92.7134 49.0134 93.2552 49.3684 93.7113 49.8165C94.1673 50.2646 94.5284 50.797 94.7739 51.383C95.0282 51.9859 95.1573 52.6326 95.1535 53.2852V101.882ZM57.8568 79.0569H85.2847V58.0964H75.2035C74.8997 58.0964 74.2544 58.1462 73.2676 58.2456C72.1239 58.3535 70.9929 58.5657 69.8893 58.8795C68.4961 59.2782 67.1481 59.8156 65.866 60.4832C64.395 61.2452 63.0717 62.2551 61.9564 63.467C60.6832 64.8689 59.68 66.4866 58.9957 68.2411C58.2366 70.1306 57.857 72.4305 57.8568 75.1409V79.0569Z" fill="white"/>
<path d="M171.364 101.882V99.2419L178.409 97.6005V51.4286H165.118L162.286 61.8478H158.509V48.3601H206.152V61.8478H202.376L199.543 51.4286H186.035V97.672L193.443 99.2419V101.882L171.364 101.882Z" fill="white"/>
<path d="M236.482 102.747C220.986 102.747 208.333 90.3135 208.333 75.1546C208.333 59.8624 220.986 47.3628 236.515 47.3628C252.011 47.3628 264.732 59.8624 264.732 75.1546C264.732 90.3135 252.011 102.747 236.482 102.747ZM236.482 94.2362C247.24 94.2362 256.071 85.6262 256.071 75.0879C256.056 69.9874 253.988 65.1 250.317 61.4933C246.647 57.8867 241.672 55.8542 236.482 55.8398C225.723 55.8398 216.96 64.4833 216.96 75.0879C216.975 80.1677 219.037 85.0348 222.696 88.6236C226.355 92.2124 231.312 94.2306 236.482 94.2362Z" fill="white"/>
<path d="M276.672 101.889C274.629 101.889 273.192 101.544 272.363 100.854C271.988 100.523 271.691 100.116 271.492 99.6606C271.294 99.2057 271.198 98.7138 271.212 98.2189C271.213 97.5192 271.31 96.8228 271.5 96.1485C271.756 95.3957 272.011 94.643 272.266 93.8902C273.096 91.8827 273.958 89.9065 274.851 87.9616C275.81 86.0169 276.8 84.1035 277.821 82.2213C278.842 80.2767 280.056 77.9555 281.46 75.2578C282.864 72.5602 284.236 69.7371 285.578 66.7886C286.917 63.9471 288.068 61.0239 289.025 58.037C289.984 55.2138 290.463 52.7358 290.462 50.6028H282.034C281.078 50.6028 279.738 50.6656 278.013 50.7912C276.268 50.9304 274.537 51.2136 272.841 51.6379C271.249 52.0109 269.771 52.7532 268.531 53.8025C267.382 54.8062 266.872 56.155 266.999 57.8488C267.118 58.5564 267.311 59.25 267.574 59.919C267.756 60.4377 267.981 60.9413 268.245 61.4248L267.191 62.1775C266.807 61.4874 266.329 60.7032 265.754 59.8248C265.179 58.8839 264.669 57.9743 264.222 57.0958C263.775 56.2176 263.52 55.5589 263.456 55.1199C263.449 54.959 263.416 54.8002 263.36 54.6492V54.0845C263.363 53.3777 263.493 52.677 263.743 52.0144C264.005 51.2512 264.468 50.5695 265.084 50.0382C266.041 49.2227 267.351 48.6895 269.011 48.4385C270.755 48.186 272.515 48.0602 274.277 48.0621C276.002 48.0621 277.662 48.1248 279.257 48.2503C280.853 48.3757 282.162 48.4385 283.185 48.4385H290.942C293.241 48.3757 295.668 48.3444 298.221 48.3444H305.212L303.965 49.7558C302.731 49.7688 301.506 49.9591 300.328 50.3205C299.075 50.6588 297.967 51.3848 297.167 52.3909C295.528 54.525 294.024 56.7563 292.665 59.0721C291.005 61.8324 289.313 64.875 287.588 68.2001C285.866 71.5251 284.27 74.85 282.801 78.1749C281.334 81.4998 280.089 84.6366 279.065 87.5853C278.109 90.4711 277.503 92.9178 277.247 94.9253C277.183 96.0546 277.439 96.8701 278.013 97.372C278.65 97.8737 279.482 98.1247 280.502 98.1247C281.879 98.1155 283.232 97.7591 284.429 97.0897C286.984 95.8349 289.538 94.0783 292.09 91.8198C294.661 89.482 297.091 86.9998 299.37 84.3856C301.441 82.0371 303.391 79.5873 305.212 77.0456C307.879 73.288 310.341 69.3928 312.585 65.377C315.013 61.1738 317.088 57.2215 318.812 53.5202C319.282 52.714 319.666 51.8626 319.96 50.9793C320.342 49.9755 320.853 49.4736 321.493 49.4735C321.814 49.4799 322.135 49.5114 322.451 49.5677C322.863 49.6327 323.279 49.6642 323.695 49.6619C325.673 49.6619 327.493 48.8777 329.154 47.3092C329.298 47.2267 329.466 47.1936 329.632 47.2152C329.736 47.2074 329.84 47.2201 329.939 47.2524C330.038 47.2847 330.13 47.336 330.208 47.4034C330.398 47.4661 330.431 47.5602 330.302 47.6857C329.015 48.7028 327.828 49.8372 326.758 51.0735C325.618 52.4527 324.563 53.8982 323.599 55.4022C322.259 57.4097 320.726 59.7309 319.001 62.3657C317.342 65.0005 315.65 67.7608 313.925 70.6468C312.203 73.5326 310.639 76.387 309.233 79.21C307.967 81.7048 306.88 84.2832 305.978 86.9265C305.594 88.1184 305.274 89.3104 305.02 90.5024C304.777 91.5844 304.649 92.6882 304.638 93.796C304.638 95.3016 304.957 96.5248 305.594 97.4659C306.297 98.407 307.446 98.8776 309.041 98.8775H309.904C310.222 98.8149 310.544 98.752 310.862 98.6893C312.074 98.5012 313.446 97.8425 314.98 96.7131C316.567 95.5282 318.071 94.2392 319.482 92.8549C320.744 91.7434 321.928 90.5486 323.025 89.279C324.047 88.0871 325.132 86.8011 326.28 85.421C326.404 85.6534 326.47 85.9114 326.473 86.1737C326.4 86.6388 326.238 87.0859 325.995 87.4911C325.815 87.9121 325.555 88.2954 325.228 88.6204C324.781 89.185 324.109 90.0006 323.215 91.067C322.322 92.0708 321.333 93.1373 320.248 94.2665C319.482 95.0192 318.332 96.023 316.798 97.2778C315.239 98.4881 313.572 99.5588 311.818 100.477C310.096 101.418 308.468 101.889 306.934 101.889C304.572 101.889 302.944 101.261 302.05 100.007C301.158 98.8149 300.711 97.3406 300.71 95.5839C300.71 93.3882 301.157 90.9729 302.05 88.3381C303.009 85.7033 303.903 83.3193 304.731 81.1862C303.391 82.7546 301.986 84.2603 300.518 85.7033C299.051 87.0833 297.583 88.4948 296.114 89.9378C294.582 91.3807 293.017 92.855 291.42 94.3607C289.915 95.7808 288.316 97.1011 286.632 98.3129C285.121 99.3053 283.518 100.156 281.845 100.854C280.209 101.539 278.45 101.891 276.672 101.889Z" fill="white"/>
<path d="M332.837 101.685V48.2886H370.862V55.9166H375V78.8011H364.526V86.4291H370.862V94.0573L375 94.057V101.685L358.187 101.685V94.0572H351.851V86.4291H341.544V101.685H332.837ZM341.544 78.8011H358.187V71.173H364.526V55.9166H341.544V78.8011Z" fill="white"/>
<path d="M103.803 41.9314V108H153.466V41.9314H103.803ZM143.819 53.5676H131.655V96.5959H141.302V101.872H116.135V96.5959H125.531V53.5676H113.451L111.773 65.0255L106.404 64.6133L107.998 48.2921H149.271L150.949 64.6133L145.496 65.0255L143.819 53.5676Z" fill="white"/>
</g>
<path d="M36.668 33.345V35.6301H31.0039V38.3254H36.4531V40.5325H31.0039V43.5891C33.3672 43.5696 35.3887 43.4622 37.6836 43.1106L37.9375 45.3567C35.2227 45.7571 32.7422 45.8254 29.6953 45.845H28.1523V33.345H36.668ZM38.875 49.8293V31.8997H41.6875V38.5793H44.2266V40.9036H41.6875V49.8293H38.875ZM60.9211 42.4465V44.7317H54.1047V49.8293H51.2922V44.7317H44.5344V42.4465H60.9211ZM46.5461 41.3137V32.5833H59.0266V34.7903H49.3V35.8645H58.6555V38.0129H49.3V39.1067H59.2219V41.3137H46.5461ZM66.6195 33.1301C69.0316 33.1204 70.8578 35.0833 71.2387 38.2668H74.0609V31.8997H76.8344V49.8684H74.0609V40.4934H71.268C70.975 43.9114 69.1098 46.0012 66.6195 46.0012C63.8754 46.0012 61.9027 43.5208 61.9125 39.5364C61.9027 35.6106 63.8754 33.1204 66.6195 33.1301ZM64.6078 39.5364C64.598 42.1438 65.4184 43.4426 66.6195 43.4426C67.8402 43.4426 68.6312 42.1438 68.6312 39.5364C68.6312 36.9778 67.8402 35.6594 66.6195 35.6692C65.4184 35.6594 64.598 36.9778 64.6078 39.5364ZM82.7672 46.47L81.0289 52.1145H78.7438L79.6813 46.47H82.7672ZM102.953 31.9192V44.9856H100.141V31.9192H102.953ZM87.7383 40.3762C90.8535 39.3704 91.9961 36.9192 91.9961 34.6145V32.8958H94.9258V34.6145C94.9062 36.8704 95.9902 39.1458 99.0273 40.0833L97.6016 42.2903C95.5996 41.6458 94.252 40.3958 93.4707 38.7844C92.6699 40.5227 91.2832 41.9094 89.2031 42.5833L87.7383 40.3762ZM90.8047 49.5364V43.6965H93.6562V47.2903H103.402V49.5364H90.8047ZM119.257 32.8372V33.9895C119.257 35.4543 119.257 37.5442 118.788 40.5325H121.327V42.7981H117.577V49.8293H114.784V42.7981H111.327V49.8293H108.515V42.7981H104.98V40.5325H115.956C116.386 38.2473 116.484 36.47 116.513 35.1028H106.874V32.8372H119.257ZM134.502 32.759C138.369 32.7493 141.308 34.7415 141.318 37.72C141.308 40.4446 139.052 42.2708 135.888 42.6711V45.5129H142.724V47.7981H126.338V45.5129H133.115V42.6711C129.961 42.2708 127.714 40.4446 127.724 37.72C127.714 34.7415 130.644 32.7493 134.502 32.759ZM130.517 37.72C130.507 39.5559 132.129 40.5227 134.502 40.5325C136.904 40.5227 138.525 39.5559 138.525 37.72C138.525 36.0012 136.904 34.9856 134.502 34.9856C132.129 34.9856 130.507 36.0012 130.517 37.72ZM158.325 32.6028V34.8098H156.137V37.5833H158.188V39.7903H144.966V37.5833H147.016V34.8098H144.829V32.6028H158.325ZM143.423 43.2473V41.0598H159.77V43.2473H143.423ZM145.356 49.5364V44.3215H148.169V47.2903H157.895V49.5364H145.356ZM149.829 37.5833H153.305V34.8098H149.829V37.5833ZM165.386 47.9543V33.8137H175.171V36.5286H168.706V39.5168H174.663V42.2317H168.706V45.2395H175.191V47.9543H165.386ZM180.166 33.8137L183.389 44.2434H183.506L186.729 33.8137H190.44L185.655 47.9543H181.241L176.436 33.8137H180.166ZM191.744 47.9543V33.8137H201.529V36.5286H195.064V39.5168H201.021V42.2317H195.064V45.2395H201.548V47.9543H191.744ZM215.45 33.8137V47.9543H212.618L206.876 39.6536H206.778V47.9543H203.458V33.8137H206.329L212.012 42.1145H212.13V33.8137H215.45ZM216.91 36.5286V33.8137H228.805V36.5286H224.508V47.9543H221.207V36.5286H216.91Z" fill="#0C0D11"/>
<path d="M38.5312 62.1694V67.6851H40.625V69.1382H38.5312V76.2632H36.7969V62.1694H38.5312ZM27.3906 72.4038C30.8281 70.6851 32.6875 68.2944 33.0312 65.0757H28.1562V63.6382H34.7969C34.7891 67.7866 33.0703 71.4351 28.375 73.7476L27.3906 72.4038ZM52.9025 62.1694V69.7476H51.1525V62.1694H52.9025ZM41.3869 66.1069C41.3869 64.146 43.0119 62.7866 45.1994 62.7944C47.3791 62.7866 49.0041 64.146 48.9963 66.1069C49.0041 68.0366 47.3791 69.396 45.1994 69.3882C43.0119 69.396 41.3869 68.0366 41.3869 66.1069ZM43.09 66.1069C43.0822 67.2397 43.965 67.9585 45.1994 67.9663C46.4103 67.9585 47.2931 67.2397 47.2931 66.1069C47.2931 64.9741 46.4103 64.2397 45.1994 64.2476C43.965 64.2397 43.0822 64.9741 43.09 66.1069ZM43.5588 76.1226V70.4038H45.2775V71.8569H51.1681V70.4038H52.9025V76.1226H43.5588ZM45.2775 74.7163H51.1681V73.2163H45.2775V74.7163ZM65.8675 62.1694V67.7944H68.0394V69.2319H65.8675V76.2944H64.1488V62.1694H65.8675ZM54.7269 65.7319V64.3413H58.0706V62.3726H59.805V64.3413H63.055V65.7319H54.7269ZM55.3831 69.9819C55.3675 68.0288 56.8831 66.646 58.9456 66.6538C60.9769 66.646 62.4847 68.0288 62.4925 69.9819C62.4847 71.9272 60.9769 73.2944 58.9456 73.2944C56.8831 73.2944 55.3675 71.9272 55.3831 69.9819ZM57.0394 69.9819C57.0316 71.1304 57.8363 71.8647 58.9456 71.8569C60.0316 71.8647 60.8206 71.1304 60.8363 69.9819C60.8206 68.8335 60.0316 68.0757 58.9456 68.0757C57.8363 68.0757 57.0316 68.8335 57.0394 69.9819ZM80.0044 63.4663V64.8257C79.9888 66.5835 79.9888 68.5444 79.4419 71.4976L77.6919 71.3101C78.2466 68.5601 78.2466 66.5522 78.2544 64.8569H69.8169V63.4663H80.0044ZM68.4731 74.4663V73.0444H73.2231V68.1382H74.9419V73.0444H81.3481V74.4663H68.4731ZM90.3563 75.0601C87.9422 75.0601 86.2156 73.7476 86.1688 71.8413H88.2156C88.2703 72.7476 89.1766 73.3491 90.3563 73.3413C91.5984 73.3491 92.4969 72.6616 92.4969 71.6538C92.4969 70.6382 91.6219 69.9116 90.1531 69.9038H89.1375V68.3413H90.1531C91.3563 68.3413 92.1922 67.6694 92.1844 66.6851C92.1922 65.7319 91.4734 65.0913 90.3719 65.0913C89.3094 65.0913 88.3953 65.6851 88.3563 66.6382H86.4031C86.45 64.7397 88.1766 63.4351 90.3875 63.4351C92.6844 63.4351 94.1688 64.8413 94.1531 66.5757C94.1688 67.8413 93.325 68.7554 92.0906 69.0132V69.1069C93.6844 69.3179 94.5906 70.3413 94.575 71.7632C94.5906 73.6772 92.8016 75.0601 90.3563 75.0601ZM98.1338 73.7944L96.8213 78.1694H95.3369L96.1494 73.7944H98.1338ZM103.849 75.0601C101.122 75.0601 99.4972 72.9507 99.505 69.2476C99.4972 65.5601 101.138 63.4351 103.849 63.4351C106.56 63.4351 108.192 65.5601 108.192 69.2476C108.192 72.9585 106.567 75.0601 103.849 75.0601ZM101.552 69.2476C101.552 71.9663 102.427 73.3491 103.849 73.3569C105.263 73.3491 106.146 71.9663 106.146 69.2476C106.138 66.5522 105.263 65.1304 103.849 65.1226C102.435 65.1304 101.56 66.5522 101.552 69.2476ZM113.908 75.0601C111.181 75.0601 109.556 72.9507 109.564 69.2476C109.556 65.5601 111.197 63.4351 113.908 63.4351C116.618 63.4351 118.251 65.5601 118.251 69.2476C118.251 72.9585 116.626 75.0601 113.908 75.0601ZM111.611 69.2476C111.611 71.9663 112.486 73.3491 113.908 73.3569C115.322 73.3491 116.204 71.9663 116.204 69.2476C116.197 66.5522 115.322 65.1304 113.908 65.1226C112.493 65.1304 111.618 66.5522 111.611 69.2476ZM123.966 75.0601C121.24 75.0601 119.615 72.9507 119.622 69.2476C119.615 65.5601 121.255 63.4351 123.966 63.4351C126.677 63.4351 128.31 65.5601 128.31 69.2476C128.31 72.9585 126.685 75.0601 123.966 75.0601ZM121.669 69.2476C121.669 71.9663 122.544 73.3491 123.966 73.3569C125.38 73.3491 126.263 71.9663 126.263 69.2476C126.255 66.5522 125.38 65.1304 123.966 65.1226C122.552 65.1304 121.677 66.5522 121.669 69.2476ZM141.228 62.1851V72.8726H139.478V71.6382H136.713V70.4194H139.478V62.1851H141.228ZM129.322 68.5288C131.923 68.5132 135.431 68.4897 138.431 68.1069L138.525 69.3569C137.361 69.5522 136.158 69.6772 134.963 69.7632V72.4819H133.228V69.8569C131.908 69.9116 130.65 69.9194 129.541 69.9194L129.322 68.5288ZM130.4 65.2007C130.4 63.7085 131.838 62.6929 133.931 62.7007C135.986 62.6929 137.431 63.7085 137.447 65.2007C137.431 66.7163 135.986 67.6772 133.931 67.6851C131.838 67.6772 130.4 66.7163 130.4 65.2007ZM131.197 76.0132V71.8413H132.931V74.6069H141.556V76.0132H131.197ZM132.041 65.2007C132.041 65.9663 132.798 66.4116 133.931 66.4194C135.009 66.4116 135.783 65.9663 135.791 65.2007C135.783 64.4351 135.009 63.9741 133.931 63.9819C132.798 63.9741 132.041 64.4351 132.041 65.2007ZM157.83 62.1694V65.4507H159.799V66.8882H157.83V70.4038H156.096V62.1694H157.83ZM147.174 69.6538V62.9976H148.893V64.9194H152.189V62.9976H153.908V69.6538H147.174ZM148.721 76.0913V71.0913H157.924V72.4819H150.455V74.7163H158.189V76.0913H148.721ZM148.893 68.2788H152.189V66.2632H148.893V68.2788ZM172.154 62.1694V76.2944H170.404V62.1694H172.154ZM160.451 72.4038C164.154 70.646 165.857 68.2554 166.17 65.0444H161.17V63.6694H167.936C167.936 67.8726 166.303 71.4429 161.357 73.7944L160.451 72.4038Z" fill="#0C0D11"/>
<path d="M184.15 74.6021L189.85 68.9021L184.15 63.2021" stroke="#191B21" stroke-width="1.9"/>
</svg>
