<svg width="93" height="32" viewBox="0 0 93 32" fill="none" xmlns="http://www.w3.org/2000/svg">
<rect width="93" height="32" fill="#FF3767"/>
<path d="M18.3509 21.6748C15.1161 21.6748 13 19.5857 13 16.3643C13 13.1296 15.17 11 18.3778 11C21.2217 11 23.3109 12.6983 23.5804 15.0435H21.5183C21.2757 13.6822 20.0357 12.7252 18.3509 12.7252C16.3157 12.7252 15.0352 14.1539 15.0352 16.3374C15.0352 18.5343 16.3157 19.9496 18.3509 19.9496C20.0357 19.9496 21.2757 18.9791 21.5183 17.6178H23.5804C23.2974 20.0035 21.2217 21.6748 18.3509 21.6748Z" fill="#191B21"/>
<path d="M30.0481 21.6748C26.8807 21.6748 25.6138 20.1113 25.6138 17.7257V11.2157H27.5411V17.5235C27.5411 18.8039 28.0938 19.963 30.0481 19.963C32.0025 19.963 32.5551 18.8039 32.5551 17.5235V11.2157H34.4959V17.7257C34.4959 20.1383 33.2425 21.6748 30.0481 21.6748Z" fill="#191B21"/>
<path d="M41.2023 21.6748C38.2506 21.6748 36.6871 20.3404 36.4849 18.1435H38.4527C38.7897 19.4104 39.531 20.0709 41.2427 20.0709C42.7254 20.0709 43.588 19.5991 43.588 18.777C43.588 18.157 43.1567 17.7661 41.8627 17.4157L39.3288 16.7283C37.7384 16.297 36.9297 15.4209 36.9297 14.0461C36.9297 12.1052 38.6414 11 41.0675 11C43.7093 11 45.2323 12.3209 45.3267 14.4235H43.3723C43.2241 13.2239 42.4154 12.6039 41.0001 12.6039C39.7736 12.6039 38.9245 13.0891 38.9245 13.8978C38.9245 14.4774 39.3423 14.8278 40.3667 15.0974L42.7254 15.7309C44.4371 16.1757 45.5827 16.9574 45.5827 18.6152C45.5827 20.5157 44.0327 21.6748 41.2023 21.6748Z" fill="#191B21"/>
<path d="M50.2644 21.4591V12.9274H46.7601V11.2157H55.6827V12.9274H52.1918V21.4591H50.2644Z" fill="#191B21"/>
<path d="M62.1693 21.6748C58.8132 21.6748 56.7106 19.4509 56.7106 16.3374C56.7106 13.2239 58.8132 11 62.1693 11C65.5119 11 67.5876 13.2239 67.5876 16.3374C67.5876 19.4509 65.5119 21.6748 62.1693 21.6748ZM62.1558 19.963C64.3124 19.963 65.5793 18.44 65.5793 16.3374C65.5793 14.2348 64.3124 12.7117 62.1558 12.7117C60.0128 12.7117 58.6919 14.2348 58.6919 16.3374C58.6919 18.44 60.0128 19.963 62.1558 19.963Z" fill="#191B21"/>
<path d="M69.8547 21.4591V11.2157H72.0651L75.2864 19.4913L78.5212 11.2157H80.7316V21.4591H78.9255V14.5313L76.2703 21.4591H74.316L71.6608 14.5313V21.4591H69.8547Z" fill="#191B21"/>
</svg>
