<svg width="69" height="23" viewBox="0 0 69 23" fill="none" xmlns="http://www.w3.org/2000/svg">
<rect width="69" height="23" fill="#FF3767"/>
<path d="M12.97 15.92C10.57 15.92 9 14.37 9 11.98C9 9.58 10.61 8 12.99 8C15.1 8 16.65 9.26 16.85 11H15.32C15.14 9.99 14.22 9.28 12.97 9.28C11.46 9.28 10.51 10.34 10.51 11.96C10.51 13.59 11.46 14.64 12.97 14.64C14.22 14.64 15.14 13.92 15.32 12.91H16.85C16.64 14.68 15.1 15.92 12.97 15.92Z" fill="#191B21"/>
<path d="M21.6486 15.92C19.2986 15.92 18.3586 14.76 18.3586 12.99V8.16H19.7886V12.84C19.7886 13.79 20.1986 14.65 21.6486 14.65C23.0986 14.65 23.5086 13.79 23.5086 12.84V8.16H24.9486V12.99C24.9486 14.78 24.0186 15.92 21.6486 15.92Z" fill="#191B21"/>
<path d="M29.9243 15.92C27.7343 15.92 26.5743 14.93 26.4243 13.3H27.8843C28.1343 14.24 28.6843 14.73 29.9543 14.73C31.0543 14.73 31.6943 14.38 31.6943 13.77C31.6943 13.31 31.3743 13.02 30.4143 12.76L28.5343 12.25C27.3543 11.93 26.7543 11.28 26.7543 10.26C26.7543 8.82 28.0243 8 29.8243 8C31.7843 8 32.9143 8.98 32.9843 10.54H31.5343C31.4243 9.65 30.8243 9.19 29.7743 9.19C28.8643 9.19 28.2343 9.55 28.2343 10.15C28.2343 10.58 28.5443 10.84 29.3043 11.04L31.0543 11.51C32.3243 11.84 33.1743 12.42 33.1743 13.65C33.1743 15.06 32.0243 15.92 29.9243 15.92Z" fill="#191B21"/>
<path d="M36.6478 15.76V9.43H34.0478V8.16H40.6678V9.43H38.0778V15.76H36.6478Z" fill="#191B21"/>
<path d="M45.4805 15.92C42.9905 15.92 41.4305 14.27 41.4305 11.96C41.4305 9.65 42.9905 8 45.4805 8C47.9605 8 49.5005 9.65 49.5005 11.96C49.5005 14.27 47.9605 15.92 45.4805 15.92ZM45.4705 14.65C47.0705 14.65 48.0105 13.52 48.0105 11.96C48.0105 10.4 47.0705 9.27 45.4705 9.27C43.8805 9.27 42.9005 10.4 42.9005 11.96C42.9005 13.52 43.8805 14.65 45.4705 14.65Z" fill="#191B21"/>
<path d="M51.1825 15.76V8.16H52.8225L55.2125 14.3L57.6125 8.16H59.2525V15.76H57.9125V10.62L55.9425 15.76H54.4925L52.5225 10.62V15.76H51.1825Z" fill="#191B21"/>
</svg>
